<svg xmlns="http://www.w3.org/2000/svg" id="SvgjsSvg20011" width="4096" height="1279.2902812254483" version="1.1" xmlns:xlink="http://www.w3.org/1999/xlink" xmlns:svgjs="http://svgjs.com/svgjs"><defs id="SvgjsDefs20012"></defs><g id="SvgjsG20013" transform="translate(328, 328.00000000000006) scale(34.4)" opacity="1"><defs id="SvgjsDefs5924"></defs><g id="SvgjsG5925" transform="scale(0.21645021645021645)" opacity="1"><g id="SvgjsG5926" class="Qf9TCNieu" transform="translate(0, 0) scale(0.8370933428085963)" light-content="false" non-strokable="false" fill="#46717e"><path d="M24 0h76v76c0 13.255-10.745 24-24 24H0V24C0 10.745 10.745 0 24 0z"></path></g><g id="SvgjsG5927" class="zh4tR_2jFo" transform="translate(10.991241334803092, 11.691581660260162) scale(0.6161458983400597)" light-content="true" non-strokable="false" fill="#ffffff"><path d="M91.668 4.168H75a4.166 4.166 0 0 0-4.168 4.164v14.941l-10.059 10.06H37.5a4.17 4.17 0 0 0-4.168 4.167v23.273l-10.059 10.06H8.332A4.166 4.166 0 0 0 4.168 75v16.668a4.162 4.162 0 0 0 4.164 4.164H25a4.169 4.169 0 0 0 4.168-4.164v-14.94l10.059-10.06H62.5c1.105 0 2.164-.441 2.945-1.223s1.223-1.84 1.223-2.945V39.227l10.059-10.059h14.941A4.166 4.166 0 0 0 95.832 25V8.332a4.162 4.162 0 0 0-4.164-4.164zM20.832 87.5H12.5v-8.332h8.332zm37.5-29.168H41.668V41.668h16.668zm29.168-37.5h-8.332V12.5H87.5z"></path></g><g id="SvgjsG5928" class="text" transform="translate(286.1044200942708, 70.15967746788826) scale(1)" light-content="false" fill="#46717e"><path d="M-135.59 -50.73L-144.93 -50.73L-156.57 -27.23L-168.21 -50.73L-177.69 -50.73L-160.73 -18.47L-160.73 0L-152.47 0L-152.47 -18.47Z M-93.84 -37.65C-96.9 -39.28 -100.35 -40.09 -104.19 -40.09C-108.02 -40.09 -111.46 -39.28 -114.5 -37.65C-117.54 -36.02 -119.93 -33.67 -121.68 -30.61C-123.43 -27.54 -124.3 -23.95 -124.3 -19.83C-124.3 -15.71 -123.43 -12.11 -121.68 -9.02C-119.93 -5.93 -117.54 -3.57 -114.5 -1.94C-111.46 -0.31 -108.02 0.5 -104.19 0.5C-100.35 0.5 -96.9 -0.31 -93.84 -1.94C-90.77 -3.57 -88.38 -5.92 -86.65 -8.98C-84.93 -12.05 -84.07 -15.66 -84.07 -19.83C-84.07 -23.95 -84.93 -27.54 -86.65 -30.61C-88.38 -33.67 -90.77 -36.02 -93.84 -37.65ZM-110.01 -31.54C-108.23 -32.5 -106.29 -32.98 -104.19 -32.98C-102.08 -32.98 -100.14 -32.5 -98.37 -31.54C-96.59 -30.59 -95.17 -29.11 -94.09 -27.12C-93.01 -25.14 -92.47 -22.71 -92.47 -19.83C-92.47 -16.91 -93.01 -14.47 -94.09 -12.5C-95.17 -10.54 -96.59 -9.08 -98.37 -8.12C-100.14 -7.16 -102.08 -6.68 -104.19 -6.68C-106.29 -6.68 -108.23 -7.16 -110.01 -8.12C-111.78 -9.08 -113.2 -10.54 -114.28 -12.5C-115.36 -14.47 -115.9 -16.91 -115.9 -19.83C-115.9 -22.71 -115.36 -25.14 -114.28 -27.12C-113.2 -29.11 -111.78 -30.59 -110.01 -31.54Z M-32.48 -39.59L-40.74 -39.59L-40.74 -18.61C-40.74 -14.59 -41.72 -11.52 -43.69 -9.41C-45.65 -7.3 -48.26 -6.25 -51.52 -6.25C-54.68 -6.25 -57.17 -7.22 -58.99 -9.16C-60.81 -11.1 -61.72 -13.87 -61.72 -17.46L-61.72 -39.59L-69.91 -39.59L-69.91 -16.6C-69.91 -11.09 -68.52 -6.85 -65.74 -3.88C-62.97 -0.91 -59.28 0.57 -54.68 0.57C-51.37 0.57 -48.48 -0.23 -45.99 -1.83C-43.49 -3.44 -41.75 -5.7 -40.74 -8.62L-40.74 0L-32.48 0Z M-1.51 -37.97C-4 -36.47 -5.92 -34.42 -7.26 -31.83L-7.26 -39.59L-15.45 -39.59L-15.45 0L-7.26 0L-7.26 -20.05C-7.26 -24.07 -6.17 -26.96 -3.99 -28.71C-1.81 -30.45 1.08 -31.33 4.67 -31.33L7.11 -31.33L7.11 -40.24C3.86 -40.24 0.98 -39.48 -1.51 -37.97Z M28.6 -6.39L28.6 -50.73L20.41 -50.73L20.41 0L46.13 0L46.13 -6.39Z M60 -54.54C59.04 -53.63 58.56 -52.48 58.56 -51.09C58.56 -49.7 59.04 -48.57 60 -47.71C60.95 -46.85 62.22 -46.42 63.8 -46.42C65.39 -46.42 66.67 -46.85 67.65 -47.71C68.63 -48.57 69.12 -49.7 69.12 -51.09C69.12 -52.48 68.63 -53.63 67.65 -54.54C66.67 -55.45 65.39 -55.9 63.8 -55.9C62.22 -55.9 60.95 -55.45 60 -54.54ZM67.9 -39.59L59.71 -39.59L59.71 0L67.9 0Z M118.2 -35.78C115.42 -38.75 111.73 -40.24 107.13 -40.24C103.87 -40.24 101 -39.42 98.51 -37.79C96.02 -36.17 94.25 -33.87 93.19 -30.9L93.19 -39.59L85 -39.59L85 0L93.19 0L93.19 -21.05C93.19 -25.08 94.17 -28.13 96.14 -30.21C98.1 -32.3 100.71 -33.34 103.97 -33.34C107.13 -33.34 109.62 -32.37 111.44 -30.43C113.26 -28.49 114.17 -25.75 114.17 -22.2L114.17 0L122.36 0L122.36 -23.06C122.36 -28.57 120.98 -32.81 118.2 -35.78Z M175.61 -18.18C175.8 -19.18 175.89 -20.36 175.89 -21.7C175.89 -25.15 175.12 -28.27 173.56 -31.08C172 -33.88 169.78 -36.08 166.88 -37.69C163.98 -39.29 160.59 -40.09 156.71 -40.09C152.88 -40.09 149.49 -39.28 146.54 -37.65C143.6 -36.02 141.29 -33.67 139.61 -30.61C137.93 -27.54 137.09 -23.95 137.09 -19.83C137.09 -15.66 137.93 -12.05 139.61 -8.98C141.29 -5.92 143.6 -3.57 146.54 -1.94C149.49 -0.31 152.88 0.5 156.71 0.5C160.02 0.5 163.01 -0.11 165.69 -1.33C168.37 -2.55 170.55 -4.24 172.23 -6.39C173.91 -8.55 175.01 -11.02 175.54 -13.8L166.77 -13.8C166.34 -11.5 165.18 -9.65 163.28 -8.26C161.39 -6.87 159.08 -6.18 156.35 -6.18C153.24 -6.18 150.63 -7.16 148.52 -9.13C146.41 -11.09 145.29 -14.11 145.14 -18.18ZM166.3 -28.42C167.28 -26.67 167.73 -24.5 167.63 -21.91L145.14 -21.91C145.33 -25.75 146.51 -28.65 148.66 -30.61C150.82 -32.57 153.5 -33.56 156.71 -33.56C158.72 -33.56 160.58 -33.14 162.28 -32.3C163.98 -31.46 165.32 -30.17 166.3 -28.42Z"></path></g></g></g></svg>