<svg xmlns="http://www.w3.org/2000/svg" id="SvgjsSvg17236" width="4096" height="1274.8095978336958" version="1.1" xmlns:xlink="http://www.w3.org/1999/xlink" xmlns:svgjs="http://svgjs.com/svgjs"><defs id="SvgjsDefs17237"></defs><g id="SvgjsG17238" transform="translate(328, 328) scale(34.4)" opacity="1"><defs id="SvgjsDefs5648"></defs><g id="SvgjsG5649" transform="scale(0.21645021645021648)" opacity="1"><g id="SvgjsG5650" class="-I56ve1kq" transform="translate(0, 0) scale(0.8310756808115333)" light-content="false" non-strokable="false" fill="#46717e"><path d="M24 0h76v76c0 13.255-10.745 24-24 24H0V24C0 10.745 10.745 0 24 0z"></path></g><g id="SvgjsG5651" class="fBLCIGYkH2" transform="translate(10.912227953739672, 11.607533701634159) scale(0.6117165741924718)" light-content="true" non-strokable="false" fill="#ffffff"><path d="M91.668 4.168H75a4.166 4.166 0 0 0-4.168 4.164v14.941l-10.059 10.06H37.5a4.17 4.17 0 0 0-4.168 4.167v23.273l-10.059 10.06H8.332A4.166 4.166 0 0 0 4.168 75v16.668a4.162 4.162 0 0 0 4.164 4.164H25a4.169 4.169 0 0 0 4.168-4.164v-14.94l10.059-10.06H62.5c1.105 0 2.164-.441 2.945-1.223s1.223-1.84 1.223-2.945V39.227l10.059-10.059h14.941A4.166 4.166 0 0 0 95.832 25V8.332a4.162 4.162 0 0 0-4.164-4.164zM20.832 87.5H12.5v-8.332h8.332zm37.5-29.168H41.668V41.668h16.668zm29.168-37.5h-8.332V12.5H87.5z"></path></g><g id="SvgjsG5652" class="text" transform="translate(286.9774383462217, 65.81935162140871) scale(1)" light-content="false" fill="#46717e"><path d="M-136.88 -45.02L-153.02 -24.51L-169.21 -45.02L-177.16 -45.02L-156.4 -16.88L-156.4 0L-149.64 0L-149.64 -16.88L-128.88 -45.02Z M-113.37 -36.27C-115.62 -36.27 -117.54 -35.48 -119.13 -33.89C-120.71 -32.31 -121.5 -30.39 -121.5 -28.14L-121.5 -8.13C-121.5 -5.88 -120.71 -3.96 -119.13 -2.38C-117.54 -0.79 -115.62 0 -113.37 0L-92.74 0C-90.49 0 -88.57 -0.79 -86.98 -2.38C-85.4 -3.96 -84.61 -5.88 -84.61 -8.13L-84.61 -28.14C-84.61 -30.39 -85.4 -32.31 -86.98 -33.89C-88.57 -35.48 -90.49 -36.27 -92.74 -36.27ZM-92.74 -29.52C-92.36 -29.52 -92.04 -29.38 -91.77 -29.11C-91.5 -28.84 -91.36 -28.52 -91.36 -28.14L-91.36 -8.13C-91.36 -7.75 -91.5 -7.43 -91.77 -7.16C-92.04 -6.89 -92.36 -6.75 -92.74 -6.75L-113.37 -6.75C-113.75 -6.75 -114.07 -6.89 -114.34 -7.16C-114.61 -7.43 -114.75 -7.75 -114.75 -8.13L-114.75 -28.14C-114.75 -28.52 -114.61 -28.84 -114.34 -29.11C-114.07 -29.38 -113.75 -29.52 -113.37 -29.52Z M-42.65 -36.27L-42.65 -8.13C-42.65 -7.75 -42.78 -7.43 -43.05 -7.16C-43.33 -6.89 -43.65 -6.75 -44.02 -6.75L-64.66 -6.75C-65.03 -6.75 -65.36 -6.89 -65.63 -7.16C-65.9 -7.43 -66.03 -7.75 -66.03 -8.13L-66.03 -36.27L-72.79 -36.27L-72.79 -8.13C-72.79 -5.88 -72 -3.96 -70.41 -2.38C-68.83 -0.79 -66.91 0 -64.66 0L-44.02 0C-41.77 0 -39.85 -0.79 -38.27 -2.38C-36.69 -3.96 -35.89 -5.88 -35.89 -8.13L-35.89 -36.27Z M-15.01 -36.27C-17.26 -36.27 -19.18 -35.48 -20.76 -33.89C-22.35 -32.31 -23.14 -30.39 -23.14 -28.14L-23.14 -8.13L-23.14 0L-16.38 0L-16.38 -28.14C-16.38 -28.52 -16.25 -28.84 -15.98 -29.11C-15.71 -29.38 -15.38 -29.52 -15.01 -29.52L5.25 -29.52L5.25 -36.27Z M15.45 0L60.47 0L60.47 -6.75L22.2 -6.75L22.2 -45.09L15.45 -45.09Z M70.1 0L76.85 0L76.85 -36.27L70.1 -36.27ZM70.1 -48.15L70.1 -41.4L76.85 -41.4L76.85 -48.15Z M117.31 -36.27L88.55 -36.27L88.55 0L95.3 0L95.3 -28.14C95.3 -28.52 95.44 -28.84 95.71 -29.11C95.98 -29.38 96.3 -29.52 96.68 -29.52L117.31 -29.52C117.69 -29.52 118.01 -29.38 118.28 -29.11C118.55 -28.84 118.69 -28.52 118.69 -28.14L118.69 0L125.44 0L125.44 -28.14C125.44 -30.39 124.65 -32.31 123.07 -33.89C121.48 -35.48 119.56 -36.27 117.31 -36.27Z M166.9 -36.27L146.26 -36.27C144.01 -36.27 142.1 -35.48 140.51 -33.89C138.93 -32.31 138.14 -30.39 138.14 -28.14L138.14 -8.13C138.14 -5.88 138.93 -3.96 140.51 -2.38C142.1 -0.79 144.01 0 146.26 0L175.03 0L175.03 -6.75L146.26 -6.75C145.89 -6.75 145.57 -6.89 145.3 -7.16C145.02 -7.43 144.89 -7.75 144.89 -8.13L144.89 -14.76L175.03 -14.76L175.03 -28.14C175.03 -30.39 174.24 -32.31 172.65 -33.89C171.07 -35.48 169.15 -36.27 166.9 -36.27ZM144.89 -21.51L144.89 -28.14C144.89 -28.52 145.02 -28.84 145.3 -29.11C145.57 -29.38 145.89 -29.52 146.26 -29.52L166.9 -29.52C167.28 -29.52 167.6 -29.38 167.87 -29.11C168.14 -28.84 168.28 -28.52 168.28 -28.14L168.28 -21.51Z"></path></g></g></g></svg>