<svg width="70" height="70" viewBox="0 0 70 70" fill="none" xmlns="http://www.w3.org/2000/svg">
<path d="M34.9998 3.88892C28.8466 3.88892 22.8316 5.71355 17.7154 9.13208C12.5992 12.5506 8.6116 17.4095 6.25688 23.0943C3.90215 28.7791 3.28605 35.0345 4.48648 41.0695C5.68691 47.1045 8.64995 52.6479 13.0009 56.9989C17.3519 61.3499 22.8954 64.3129 28.9303 65.5133C34.9653 66.7138 41.2207 66.0977 46.9055 63.7429C52.5903 61.3882 57.4492 57.4006 60.8677 52.2844C64.2863 47.1682 66.1109 41.1532 66.1109 35C66.1109 26.7488 62.8331 18.8356 56.9987 13.0011C51.1642 7.16668 43.251 3.88892 34.9998 3.88892ZM55.3192 24.5584L29.7692 50.0889L14.6804 35C14.1647 34.4843 13.8749 33.7849 13.8749 33.0556C13.8749 32.3263 14.1647 31.6268 14.6804 31.1111C15.1961 30.5954 15.8955 30.3057 16.6248 30.3057C17.3541 30.3057 18.0535 30.5954 18.5692 31.1111L29.8081 42.35L51.4692 20.7084C51.7246 20.453 52.0277 20.2505 52.3614 20.1123C52.695 19.9741 53.0526 19.9029 53.4137 19.9029C53.7748 19.9029 54.1324 19.9741 54.466 20.1123C54.7996 20.2505 55.1028 20.453 55.3581 20.7084C55.6135 20.9637 55.816 21.2668 55.9542 21.6005C56.0924 21.9341 56.1636 22.2917 56.1636 22.6528C56.1636 23.0139 56.0924 23.3715 55.9542 23.7051C55.816 24.0388 55.6135 24.3419 55.3581 24.5972L55.3192 24.5584Z" fill="#5C9CAF"/>
</svg>
