<svg xmlns="http://www.w3.org/2000/svg" height="24" viewBox="0 -960 960 960" width="24"><path d="M687.693-100.001q-74.923 0-127.461-52.538Q507.694-205.078 507.694-280t52.538-127.461q52.538-52.538 127.461-52.538 74.922 0 127.46 52.538Q867.691-354.922 867.691-280t-52.538 127.461q-52.538 52.538-127.46 52.538Zm66.615-88.461 24.923-24.923-73.846-73.846v-110.461h-35.384v124.923l84.307 84.307Zm-541.999 48.461q-29.923 0-51.115-21.193-21.193-21.192-21.193-51.115v-535.382q0-29.923 21.193-51.115 21.192-21.193 51.115-21.193H388.54q8.308-29.23 33.961-48.46Q448.154-887.69 480-887.69q33.076 0 58.422 19.231 25.346 19.23 33.653 48.46h175.616q29.923 0 51.115 21.193 21.193 21.192 21.193 51.115v245.384q-14.154-9.154-28.769-15.654-14.615-6.499-31.23-11.576v-218.154q0-4.616-3.846-8.463-3.847-3.846-8.463-3.846h-87.692v104.614H300.001V-760h-87.692q-4.616 0-8.463 3.846-3.846 3.847-3.846 8.463v535.382q0 5.385 3.462 8.847 3.462 3.462 8.847 3.462h228.539q5.077 16.615 11.769 31.422 6.692 14.808 16.615 28.577H212.309ZM480-755.384q15.461 0 25.807-10.346 10.347-10.346 10.347-25.808 0-15.461-10.347-25.807-10.346-10.346-25.807-10.346-15.461 0-25.807 10.346-10.347 10.346-10.347 25.807 0 15.462 10.347 25.808 10.346 10.346 25.807 10.346Z"/></svg>