<svg xmlns="http://www.w3.org/2000/svg" id="SvgjsSvg16302" width="4096" height="2798.5640718834698" version="1.1" xmlns:xlink="http://www.w3.org/1999/xlink" xmlns:svgjs="http://svgjs.com/svgjs"><defs id="SvgjsDefs16303"></defs><g id="SvgjsG16304" transform="translate(328, 328) scale(34.4)" opacity="1"><defs id="SvgjsDefs5230"></defs><g id="SvgjsG5231" transform="scale(0.2477209715972121)" opacity="1"><g id="SvgjsG5232" class="vr-UM8VRG" transform="translate(147.08000004291532, 0) scale(1.0902213974818742)" light-content="false" non-strokable="false" fill="#46717e"><path d="M24 0h76v76c0 13.255-10.745 24-24 24H0V24C0 10.745 10.745 0 24 0z"></path></g><g id="SvgjsG5233" class="IEOpPQxIpg" transform="translate(161.39487495027615, 15.226990640799801) scale(0.8024618139803064)" light-content="true" non-strokable="false" fill="#ffffff"><path d="M91.668 4.168H75a4.166 4.166 0 0 0-4.168 4.164v14.941l-10.059 10.06H37.5a4.17 4.17 0 0 0-4.168 4.167v23.273l-10.059 10.06H8.332A4.166 4.166 0 0 0 4.168 75v16.668a4.162 4.162 0 0 0 4.164 4.164H25a4.169 4.169 0 0 0 4.168-4.164v-14.94l10.059-10.06H62.5c1.105 0 2.164-.441 2.945-1.223s1.223-1.84 1.223-2.945V39.227l10.059-10.059h14.941A4.166 4.166 0 0 0 95.832 25V8.332a4.162 4.162 0 0 0-4.164-4.164zM20.832 87.5H12.5v-8.332h8.332zm37.5-29.168H41.668V41.668h16.668zm29.168-37.5h-8.332V12.5H87.5z"></path></g><g id="SvgjsG5234" class="text" transform="translate(202.87, 200.531852036802) scale(1)" light-content="false" fill="#46717e"><path d="M-154.79 -57.91L-165.46 -57.91L-178.75 -31.09L-192.04 -57.91L-202.87 -57.91L-183.51 -21.08L-183.51 0L-174.07 0L-174.07 -21.08Z M-107.13 -42.98C-110.63 -44.84 -114.57 -45.77 -118.95 -45.77C-123.32 -45.77 -127.25 -44.84 -130.72 -42.98C-134.19 -41.13 -136.93 -38.45 -138.92 -34.95C-140.92 -31.45 -141.92 -27.34 -141.92 -22.64C-141.92 -17.94 -140.92 -13.82 -138.92 -10.3C-136.93 -6.77 -134.19 -4.07 -130.72 -2.21C-127.25 -0.36 -123.32 0.57 -118.95 0.57C-114.57 0.57 -110.63 -0.36 -107.13 -2.21C-103.63 -4.07 -100.9 -6.75 -98.93 -10.25C-96.96 -13.75 -95.98 -17.88 -95.98 -22.64C-95.98 -27.34 -96.96 -31.45 -98.93 -34.95C-100.9 -38.45 -103.63 -41.13 -107.13 -42.98ZM-125.59 -36.01C-123.57 -37.11 -121.35 -37.65 -118.95 -37.65C-116.54 -37.65 -114.33 -37.11 -112.3 -36.01C-110.28 -34.92 -108.65 -33.24 -107.42 -30.97C-106.19 -28.7 -105.58 -25.92 -105.58 -22.64C-105.58 -19.3 -106.19 -16.52 -107.42 -14.27C-108.65 -12.03 -110.28 -10.36 -112.3 -9.27C-114.33 -8.18 -116.54 -7.63 -118.95 -7.63C-121.35 -7.63 -123.57 -8.18 -125.59 -9.27C-127.61 -10.36 -129.24 -12.03 -130.47 -14.27C-131.7 -16.52 -132.32 -19.3 -132.32 -22.64C-132.32 -25.92 -131.7 -28.7 -130.47 -30.97C-129.24 -33.24 -127.61 -34.92 -125.59 -36.01Z M-37.08 -45.2L-46.51 -45.2L-46.51 -21.25C-46.51 -16.65 -47.63 -13.15 -49.88 -10.75C-52.12 -8.34 -55.1 -7.14 -58.82 -7.14C-62.43 -7.14 -65.27 -8.24 -67.35 -10.46C-69.43 -12.67 -70.47 -15.83 -70.47 -19.93L-70.47 -45.2L-79.82 -45.2L-79.82 -18.95C-79.82 -12.66 -78.23 -7.82 -75.06 -4.43C-71.89 -1.04 -67.68 0.66 -62.43 0.66C-58.65 0.66 -55.34 -0.26 -52.5 -2.09C-49.66 -3.92 -47.66 -6.51 -46.51 -9.84L-46.51 0L-37.08 0Z M-1.72 -43.35C-4.57 -41.63 -6.75 -39.29 -8.29 -36.34L-8.29 -45.2L-17.64 -45.2L-17.64 0L-8.29 0L-8.29 -22.89C-8.29 -27.48 -7.04 -30.78 -4.55 -32.77C-2.06 -34.77 1.23 -35.77 5.33 -35.77L8.12 -35.77L8.12 -45.94C4.4 -45.94 1.12 -45.08 -1.72 -43.35Z M32.65 -7.3L32.65 -57.91L23.3 -57.91L23.3 0L52.66 0L52.66 -7.3Z M68.5 -62.26C67.4 -61.22 66.86 -59.91 66.86 -58.32C66.86 -56.74 67.4 -55.45 68.5 -54.47C69.59 -53.48 71.04 -52.99 72.84 -52.99C74.65 -52.99 76.11 -53.48 77.23 -54.47C78.35 -55.45 78.91 -56.74 78.91 -58.32C78.91 -59.91 78.35 -61.22 77.23 -62.26C76.11 -63.3 74.65 -63.82 72.84 -63.82C71.04 -63.82 69.59 -63.3 68.5 -62.26ZM77.52 -45.2L68.17 -45.2L68.17 0L77.52 0Z M134.94 -40.85C131.77 -44.24 127.56 -45.94 122.31 -45.94C118.59 -45.94 115.31 -45.01 112.47 -43.15C109.62 -41.29 107.6 -38.66 106.4 -35.27L106.4 -45.2L97.04 -45.2L97.04 0L106.4 0L106.4 -24.04C106.4 -28.63 107.52 -32.12 109.76 -34.49C112 -36.87 114.98 -38.06 118.7 -38.06C122.31 -38.06 125.15 -36.96 127.23 -34.74C129.31 -32.53 130.35 -29.39 130.35 -25.35L130.35 0L139.7 0L139.7 -26.33C139.7 -32.62 138.11 -37.46 134.94 -40.85Z M200.49 -20.75C200.71 -21.9 200.81 -23.24 200.81 -24.77C200.81 -28.71 199.93 -32.28 198.15 -35.48C196.37 -38.68 193.83 -41.19 190.52 -43.03C187.21 -44.86 183.34 -45.77 178.91 -45.77C174.54 -45.77 170.67 -44.84 167.3 -42.98C163.94 -41.13 161.3 -38.45 159.39 -34.95C157.47 -31.45 156.52 -27.34 156.52 -22.64C156.52 -17.88 157.47 -13.75 159.39 -10.25C161.3 -6.75 163.94 -4.07 167.3 -2.21C170.67 -0.36 174.54 0.57 178.91 0.57C182.69 0.57 186.1 -0.12 189.17 -1.52C192.23 -2.91 194.72 -4.84 196.63 -7.3C198.54 -9.76 199.8 -12.58 200.4 -15.75L190.4 -15.75C189.9 -13.13 188.58 -11.02 186.42 -9.43C184.26 -7.85 181.62 -7.05 178.5 -7.05C174.95 -7.05 171.97 -8.18 169.56 -10.42C167.15 -12.66 165.87 -16.11 165.7 -20.75ZM189.86 -32.44C190.98 -30.45 191.49 -27.97 191.38 -25.02L165.7 -25.02C165.92 -29.39 167.26 -32.7 169.72 -34.95C172.19 -37.19 175.25 -38.31 178.91 -38.31C181.21 -38.31 183.33 -37.83 185.27 -36.87C187.21 -35.92 188.74 -34.44 189.86 -32.44Z"></path></g><g id="SvgjsG5235" class="text" transform="translate(201.64499882698044, 249.08739738609097) scale(1)" light-content="false" fill="#444444"><path d="M-167.9 -11.67C-168.91 -12.43 -170.19 -12.82 -171.74 -12.82C-172.93 -12.82 -173.98 -12.54 -174.89 -12C-175.8 -11.45 -176.51 -10.69 -177.02 -9.7C-177.53 -8.72 -177.79 -7.6 -177.79 -6.34C-177.79 -5.09 -177.53 -3.97 -177.02 -3C-176.51 -2.02 -175.8 -1.26 -174.89 -0.71C-173.98 -0.17 -172.93 0.11 -171.74 0.11C-170.19 0.11 -168.91 -0.27 -167.9 -1.04C-166.9 -1.8 -166.2 -2.84 -165.82 -4.16L-167.54 -4.16C-167.87 -3.32 -168.39 -2.65 -169.11 -2.15C-169.83 -1.65 -170.71 -1.4 -171.76 -1.4C-172.58 -1.4 -173.32 -1.6 -173.98 -2.01C-174.63 -2.41 -175.15 -2.98 -175.53 -3.73C-175.91 -4.47 -176.09 -5.34 -176.09 -6.34C-176.09 -7.34 -175.91 -8.22 -175.53 -8.97C-175.15 -9.72 -174.63 -10.3 -173.98 -10.7C-173.32 -11.1 -172.58 -11.3 -171.76 -11.3C-170.71 -11.3 -169.83 -11.06 -169.11 -10.56C-168.39 -10.06 -167.87 -9.39 -167.54 -8.55L-165.82 -8.55C-166.2 -9.87 -166.9 -10.91 -167.9 -11.67Z M-152.83 -12.02C-153.77 -12.58 -154.83 -12.85 -156.01 -12.85C-157.18 -12.85 -158.25 -12.58 -159.2 -12.02C-160.16 -11.47 -160.9 -10.7 -161.44 -9.71C-161.98 -8.72 -162.25 -7.6 -162.25 -6.35C-162.25 -5.11 -161.98 -3.99 -161.44 -3C-160.9 -2.01 -160.16 -1.24 -159.2 -0.68C-158.25 -0.13 -157.18 0.14 -156.01 0.14C-154.83 0.14 -153.77 -0.13 -152.83 -0.68C-151.89 -1.24 -151.15 -2.01 -150.61 -3C-150.07 -3.99 -149.8 -5.11 -149.8 -6.35C-149.8 -7.6 -150.07 -8.72 -150.61 -9.71C-151.15 -10.7 -151.89 -11.47 -152.83 -12.02ZM-158.36 -10.72C-157.66 -11.12 -156.88 -11.32 -156.01 -11.32C-155.14 -11.32 -154.37 -11.12 -153.68 -10.72C-152.99 -10.32 -152.45 -9.74 -152.05 -8.99C-151.66 -8.24 -151.47 -7.36 -151.47 -6.35C-151.47 -5.36 -151.66 -4.48 -152.05 -3.74C-152.45 -2.99 -152.99 -2.41 -153.68 -2C-154.37 -1.59 -155.14 -1.39 -156.01 -1.39C-156.88 -1.39 -157.66 -1.59 -158.36 -1.99C-159.04 -2.39 -159.58 -2.97 -159.98 -3.73C-160.37 -4.48 -160.56 -5.36 -160.56 -6.35C-160.56 -7.36 -160.37 -8.24 -159.98 -8.99C-159.58 -9.74 -159.04 -10.32 -158.36 -10.72Z M-133.07 -12.47L-135.04 -12.47L-139.39 -2L-143.82 -12.47L-145.78 -12.47L-145.78 0L-144.14 0L-144.14 -9.92L-140.15 0L-138.69 0L-134.71 -9.95L-134.71 0L-133.07 0Z M-127.01 -5.11L-124.61 -5.11C-123.21 -5.11 -122.14 -5.44 -121.39 -6.11C-120.65 -6.78 -120.28 -7.7 -120.28 -8.89C-120.28 -10.07 -120.64 -10.99 -121.36 -11.67C-122.08 -12.35 -123.16 -12.69 -124.61 -12.69L-128.65 -12.69L-128.65 0L-127.01 0ZM-122.61 -7.11C-123.04 -6.69 -123.76 -6.48 -124.76 -6.48L-127.01 -6.48L-127.01 -11.32L-124.76 -11.32C-123.76 -11.32 -123.05 -11.12 -122.61 -10.7C-122.17 -10.29 -121.95 -9.68 -121.95 -8.89C-121.95 -8.12 -122.17 -7.53 -122.61 -7.11Z M-114.93 -1.28L-114.93 -12.69L-116.57 -12.69L-116.57 0L-110.43 0L-110.43 -1.28Z M-105.32 -11.36L-99.95 -11.36L-99.95 -12.69L-106.96 -12.69L-106.96 0L-99.95 0L-99.95 -1.33L-105.32 -1.33L-105.32 -5.76L-100.49 -5.76L-100.49 -7.02L-105.32 -7.02Z M-88.97 0L-87.03 0L-91.03 -6.34L-87.14 -12.69L-89.03 -12.69L-91.94 -7.76L-95.06 -12.69L-97.02 -12.69L-93.08 -6.46L-96.95 0L-95.06 0L-92.16 -5.02Z M-67.45 0L-67.45 -12.69L-69.08 -12.69L-69.08 -2.65L-75.67 -12.69L-77.31 -12.69L-77.31 0L-75.67 0L-75.67 -10.03L-69.08 0Z M-61.38 -11.36L-56.02 -11.36L-56.02 -12.69L-63.02 -12.69L-63.02 0L-56.02 0L-56.02 -1.33L-61.38 -1.33L-61.38 -5.76L-56.56 -5.76L-56.56 -7.02L-61.38 -7.02Z M-50.47 -11.36L-45.11 -11.36L-45.11 -12.69L-52.11 -12.69L-52.11 0L-45.11 0L-45.11 -1.33L-50.47 -1.33L-50.47 -5.76L-45.65 -5.76L-45.65 -7.02L-50.47 -7.02Z M-31.28 -3C-30.77 -3.95 -30.51 -5.07 -30.51 -6.35C-30.51 -7.65 -30.77 -8.77 -31.28 -9.73C-31.8 -10.68 -32.56 -11.42 -33.56 -11.92C-34.56 -12.43 -35.77 -12.69 -37.17 -12.69L-41.2 -12.69L-41.2 0L-37.17 0C-35.77 0 -34.56 -0.26 -33.56 -0.78C-32.56 -1.31 -31.8 -2.04 -31.28 -3ZM-33.5 -2.75C-34.37 -1.9 -35.64 -1.48 -37.3 -1.48L-39.56 -1.48L-39.56 -11.25L-37.3 -11.25C-35.63 -11.25 -34.36 -10.82 -33.49 -9.96C-32.62 -9.11 -32.18 -7.9 -32.18 -6.35C-32.18 -4.81 -32.62 -3.61 -33.5 -2.75Z M-18.9 -1.62C-18.61 -2.14 -18.47 -2.69 -18.47 -3.29C-18.47 -4.1 -18.64 -4.74 -18.99 -5.23C-19.34 -5.72 -19.76 -6.08 -20.26 -6.32C-20.76 -6.56 -21.41 -6.81 -22.23 -7.07C-22.9 -7.29 -23.43 -7.49 -23.81 -7.66C-24.2 -7.83 -24.52 -8.07 -24.78 -8.38C-25.03 -8.68 -25.16 -9.08 -25.16 -9.58C-25.16 -10.2 -24.97 -10.68 -24.57 -11.03C-24.17 -11.37 -23.65 -11.54 -22.99 -11.54C-22.27 -11.54 -21.7 -11.35 -21.28 -10.96C-20.86 -10.58 -20.6 -10.13 -20.5 -9.63L-18.74 -9.63C-18.86 -10.57 -19.28 -11.34 -20.02 -11.94C-20.75 -12.55 -21.74 -12.85 -22.99 -12.85C-23.79 -12.85 -24.49 -12.71 -25.08 -12.44C-25.68 -12.16 -26.13 -11.77 -26.45 -11.27C-26.77 -10.76 -26.93 -10.18 -26.93 -9.52C-26.93 -8.75 -26.76 -8.14 -26.42 -7.67C-26.07 -7.2 -25.66 -6.85 -25.17 -6.62C-24.69 -6.38 -24.04 -6.13 -23.24 -5.87C-22.55 -5.65 -22.01 -5.45 -21.62 -5.26C-21.22 -5.08 -20.89 -4.82 -20.62 -4.5C-20.35 -4.18 -20.21 -3.76 -20.21 -3.24C-20.21 -2.64 -20.41 -2.15 -20.79 -1.76C-21.17 -1.38 -21.73 -1.19 -22.45 -1.19C-23 -1.19 -23.47 -1.3 -23.86 -1.52C-24.25 -1.74 -24.55 -2.03 -24.76 -2.37C-24.97 -2.71 -25.09 -3.06 -25.13 -3.42L-26.87 -3.42C-26.81 -2.74 -26.59 -2.13 -26.2 -1.59C-25.81 -1.06 -25.29 -0.64 -24.63 -0.33C-23.98 -0.03 -23.23 0.13 -22.39 0.13C-21.53 0.13 -20.8 -0.04 -20.21 -0.36C-19.63 -0.68 -19.19 -1.1 -18.9 -1.62Z M-13.27 0.27C-13.27 -0.19 -13.35 -0.68 -13.52 -1.21L-15.19 -1.21L-15.19 0.47L-14.27 0.47L-14.27 0.63C-14.27 0.98 -14.34 1.23 -14.48 1.4C-14.62 1.56 -14.84 1.64 -15.14 1.64L-15.14 2.34C-14.51 2.34 -14.05 2.15 -13.73 1.77C-13.42 1.4 -13.27 0.89 -13.27 0.27Z M4.32 -1.62C4.61 -2.14 4.75 -2.69 4.75 -3.29C4.75 -4.1 4.58 -4.74 4.23 -5.23C3.88 -5.72 3.46 -6.08 2.96 -6.32C2.46 -6.56 1.81 -6.81 0.99 -7.07C0.32 -7.29 -0.21 -7.49 -0.59 -7.66C-0.98 -7.83 -1.3 -8.07 -1.56 -8.38C-1.81 -8.68 -1.94 -9.08 -1.94 -9.58C-1.94 -10.2 -1.75 -10.68 -1.35 -11.03C-0.95 -11.37 -0.43 -11.54 0.23 -11.54C0.95 -11.54 1.52 -11.35 1.94 -10.96C2.36 -10.58 2.62 -10.13 2.72 -9.63L4.48 -9.63C4.36 -10.57 3.94 -11.34 3.2 -11.94C2.47 -12.55 1.48 -12.85 0.23 -12.85C-0.57 -12.85 -1.27 -12.71 -1.86 -12.44C-2.46 -12.16 -2.91 -11.77 -3.23 -11.27C-3.55 -10.76 -3.71 -10.18 -3.71 -9.52C-3.71 -8.75 -3.54 -8.14 -3.19 -7.67C-2.85 -7.2 -2.44 -6.85 -1.95 -6.62C-1.47 -6.38 -0.82 -6.13 -0.02 -5.87C0.67 -5.65 1.21 -5.45 1.6 -5.26C2 -5.08 2.33 -4.82 2.6 -4.5C2.87 -4.18 3.01 -3.76 3.01 -3.24C3.01 -2.64 2.81 -2.15 2.43 -1.76C2.05 -1.38 1.49 -1.19 0.77 -1.19C0.22 -1.19 -0.25 -1.3 -0.64 -1.52C-1.03 -1.74 -1.33 -2.03 -1.54 -2.37C-1.75 -2.71 -1.87 -3.06 -1.91 -3.42L-3.65 -3.42C-3.59 -2.74 -3.37 -2.13 -2.98 -1.59C-2.59 -1.06 -2.07 -0.64 -1.41 -0.33C-0.76 -0.03 -0.01 0.13 0.83 0.13C1.69 0.13 2.42 -0.04 3.01 -0.36C3.59 -0.68 4.03 -1.1 4.32 -1.62Z M10.39 -12.69L8.75 -12.69L8.75 0L10.39 0Z M27.52 -12.47L25.56 -12.47L21.2 -2L16.78 -12.47L14.81 -12.47L14.81 0L16.45 0L16.45 -9.92L20.45 0L21.91 0L25.88 -9.95L25.88 0L27.52 0Z M33.59 -5.11L35.98 -5.11C37.39 -5.11 38.46 -5.44 39.2 -6.11C39.95 -6.78 40.32 -7.7 40.32 -8.89C40.32 -10.07 39.96 -10.99 39.24 -11.67C38.52 -12.35 37.43 -12.69 35.98 -12.69L31.95 -12.69L31.95 0L33.59 0ZM37.99 -7.11C37.55 -6.69 36.83 -6.48 35.84 -6.48L33.59 -6.48L33.59 -11.32L35.84 -11.32C36.83 -11.32 37.55 -11.12 37.99 -10.7C38.43 -10.29 38.65 -9.68 38.65 -8.89C38.65 -8.12 38.43 -7.53 37.99 -7.11Z M45.67 -1.28L45.67 -12.69L44.03 -12.69L44.03 0L50.17 0L50.17 -1.28Z M55.28 -11.36L60.64 -11.36L60.64 -12.69L53.64 -12.69L53.64 0L60.64 0L60.64 -1.33L55.28 -1.33L55.28 -5.76L60.1 -5.76L60.1 -7.02L55.28 -7.02Z M78.39 -1.62C78.68 -2.14 78.82 -2.69 78.82 -3.29C78.82 -4.1 78.65 -4.74 78.3 -5.23C77.95 -5.72 77.53 -6.08 77.03 -6.32C76.53 -6.56 75.88 -6.81 75.06 -7.07C74.39 -7.29 73.86 -7.49 73.48 -7.66C73.09 -7.83 72.77 -8.07 72.51 -8.38C72.26 -8.68 72.13 -9.08 72.13 -9.58C72.13 -10.2 72.32 -10.68 72.72 -11.03C73.12 -11.37 73.64 -11.54 74.3 -11.54C75.02 -11.54 75.59 -11.35 76.01 -10.96C76.43 -10.58 76.69 -10.13 76.79 -9.63L78.55 -9.63C78.43 -10.57 78.01 -11.34 77.27 -11.94C76.54 -12.55 75.55 -12.85 74.3 -12.85C73.5 -12.85 72.8 -12.71 72.21 -12.44C71.61 -12.16 71.16 -11.77 70.84 -11.27C70.52 -10.76 70.36 -10.18 70.36 -9.52C70.36 -8.75 70.53 -8.14 70.88 -7.67C71.22 -7.2 71.63 -6.85 72.12 -6.62C72.6 -6.38 73.25 -6.13 74.05 -5.87C74.74 -5.65 75.28 -5.45 75.67 -5.26C76.07 -5.08 76.4 -4.82 76.67 -4.5C76.94 -4.18 77.08 -3.76 77.08 -3.24C77.08 -2.64 76.88 -2.15 76.5 -1.76C76.12 -1.38 75.56 -1.19 74.84 -1.19C74.29 -1.19 73.82 -1.3 73.43 -1.52C73.04 -1.74 72.74 -2.03 72.53 -2.37C72.32 -2.71 72.2 -3.06 72.16 -3.42L70.42 -3.42C70.48 -2.74 70.7 -2.13 71.09 -1.59C71.48 -1.06 72 -0.64 72.66 -0.33C73.31 -0.03 74.06 0.13 74.9 0.13C75.76 0.13 76.49 -0.04 77.08 -0.36C77.66 -0.68 78.1 -1.1 78.39 -1.62Z M91.81 -12.02C90.87 -12.58 89.81 -12.85 88.63 -12.85C87.46 -12.85 86.39 -12.58 85.44 -12.02C84.48 -11.47 83.74 -10.7 83.2 -9.71C82.66 -8.72 82.39 -7.6 82.39 -6.35C82.39 -5.11 82.66 -3.99 83.2 -3C83.74 -2.01 84.48 -1.24 85.44 -0.68C86.39 -0.13 87.46 0.14 88.63 0.14C89.81 0.14 90.87 -0.13 91.81 -0.68C92.75 -1.24 93.49 -2.01 94.03 -3C94.57 -3.99 94.84 -5.11 94.84 -6.35C94.84 -7.6 94.57 -8.72 94.03 -9.71C93.49 -10.7 92.75 -11.47 91.81 -12.02ZM86.28 -10.72C86.97 -11.12 87.76 -11.32 88.63 -11.32C89.5 -11.32 90.27 -11.12 90.96 -10.72C91.65 -10.32 92.19 -9.74 92.58 -8.99C92.97 -8.24 93.17 -7.36 93.17 -6.35C93.17 -5.36 92.97 -4.48 92.58 -3.74C92.19 -2.99 91.65 -2.41 90.96 -2C90.27 -1.59 89.5 -1.39 88.63 -1.39C87.76 -1.39 86.97 -1.59 86.28 -1.99C85.59 -2.39 85.05 -2.97 84.66 -3.73C84.27 -4.48 84.08 -5.36 84.08 -6.35C84.08 -7.36 84.27 -8.24 84.66 -8.99C85.05 -9.74 85.59 -10.32 86.28 -10.72Z M100.49 -1.28L100.49 -12.69L98.86 -12.69L98.86 0L104.99 0L104.99 -1.28Z M110.02 -12.69L108.38 -12.69L108.38 -5.08C108.38 -3.35 108.81 -2.05 109.67 -1.18C110.52 -0.31 111.67 0.13 113.09 0.13C114.53 0.13 115.68 -0.31 116.54 -1.18C117.4 -2.05 117.83 -3.35 117.83 -5.08L117.83 -12.69L116.19 -12.69L116.19 -5.08C116.19 -3.84 115.92 -2.92 115.38 -2.32C114.84 -1.72 114.09 -1.42 113.13 -1.42C112.16 -1.42 111.4 -1.72 110.84 -2.31C110.29 -2.91 110.02 -3.83 110.02 -5.08Z M129.94 -12.69L121.14 -12.69L121.14 -11.36L124.72 -11.36L124.72 0L126.36 0L126.36 -11.36L129.94 -11.36Z M135 -12.69L133.36 -12.69L133.36 0L135 0Z M148.42 -12.02C147.48 -12.58 146.42 -12.85 145.24 -12.85C144.07 -12.85 143 -12.58 142.05 -12.02C141.09 -11.47 140.35 -10.7 139.81 -9.71C139.27 -8.72 139 -7.6 139 -6.35C139 -5.11 139.27 -3.99 139.81 -3C140.35 -2.01 141.09 -1.24 142.05 -0.68C143 -0.13 144.07 0.14 145.24 0.14C146.42 0.14 147.48 -0.13 148.42 -0.68C149.36 -1.24 150.1 -2.01 150.64 -3C151.18 -3.99 151.45 -5.11 151.45 -6.35C151.45 -7.6 151.18 -8.72 150.64 -9.71C150.1 -10.7 149.36 -11.47 148.42 -12.02ZM142.89 -10.72C143.58 -11.12 144.37 -11.32 145.24 -11.32C146.11 -11.32 146.88 -11.12 147.57 -10.72C148.26 -10.32 148.8 -9.74 149.19 -8.99C149.58 -8.24 149.78 -7.36 149.78 -6.35C149.78 -5.36 149.58 -4.48 149.19 -3.74C148.8 -2.99 148.26 -2.41 147.57 -2C146.88 -1.59 146.11 -1.39 145.24 -1.39C144.37 -1.39 143.58 -1.59 142.89 -1.99C142.2 -2.39 141.66 -2.97 141.27 -3.73C140.88 -4.48 140.69 -5.36 140.69 -6.35C140.69 -7.36 140.88 -8.24 141.27 -8.99C141.66 -9.74 142.2 -10.32 142.89 -10.72Z M165.33 0L165.33 -12.69L163.69 -12.69L163.69 -2.65L157.1 -12.69L155.47 -12.69L155.47 0L157.1 0L157.1 -10.03L163.69 0Z M177.35 -1.62C177.64 -2.14 177.79 -2.69 177.79 -3.29C177.79 -4.1 177.61 -4.74 177.26 -5.23C176.92 -5.72 176.49 -6.08 176 -6.32C175.5 -6.56 174.84 -6.81 174.02 -7.07C173.35 -7.29 172.82 -7.49 172.44 -7.66C172.06 -7.83 171.73 -8.07 171.48 -8.38C171.22 -8.68 171.09 -9.08 171.09 -9.58C171.09 -10.2 171.29 -10.68 171.68 -11.03C172.08 -11.37 172.61 -11.54 173.27 -11.54C173.99 -11.54 174.56 -11.35 174.98 -10.96C175.4 -10.58 175.66 -10.13 175.75 -9.63L177.52 -9.63C177.4 -10.57 176.97 -11.34 176.24 -11.94C175.51 -12.55 174.52 -12.85 173.27 -12.85C172.46 -12.85 171.77 -12.71 171.17 -12.44C170.58 -12.16 170.12 -11.77 169.8 -11.27C169.49 -10.76 169.33 -10.18 169.33 -9.52C169.33 -8.75 169.5 -8.14 169.84 -7.67C170.18 -7.2 170.6 -6.85 171.08 -6.62C171.57 -6.38 172.21 -6.13 173.02 -5.87C173.7 -5.65 174.24 -5.45 174.64 -5.26C175.03 -5.08 175.37 -4.82 175.64 -4.5C175.91 -4.18 176.04 -3.76 176.04 -3.24C176.04 -2.64 175.85 -2.15 175.46 -1.76C175.08 -1.38 174.53 -1.19 173.81 -1.19C173.26 -1.19 172.79 -1.3 172.4 -1.52C172.01 -1.74 171.71 -2.03 171.5 -2.37C171.28 -2.71 171.16 -3.06 171.13 -3.42L169.38 -3.42C169.44 -2.74 169.66 -2.13 170.06 -1.59C170.44 -1.06 170.97 -0.64 171.62 -0.33C172.27 -0.03 173.02 0.13 173.86 0.13C174.73 0.13 175.45 -0.04 176.04 -0.36C176.63 -0.68 177.07 -1.1 177.35 -1.62Z"></path></g></g></g></svg>